<svg width="144" height="41" viewBox="0 0 144 41" fill="none" xmlns="http://www.w3.org/2000/svg">
<path d="M111.047 40.0792C110.092 40.0792 109.245 39.8591 108.507 39.4172C107.769 38.9753 107.192 38.3614 106.777 37.5737C106.36 36.786 106.152 35.8837 106.152 34.8667C106.152 33.8498 106.358 32.9345 106.769 32.1523C107.181 31.3702 107.749 30.7582 108.478 30.3163C109.207 29.8743 110.048 29.6543 111.003 29.6543C111.957 29.6543 112.803 29.878 113.535 30.3236C114.267 30.7693 114.837 31.385 115.244 32.1671C115.65 32.9493 115.854 33.8498 115.854 34.8667C115.854 35.8837 115.65 36.786 115.244 37.5737C114.837 38.3614 114.273 38.9753 113.548 39.4172C112.824 39.8591 111.99 40.0792 111.045 40.0792H111.047ZM111.047 38.9716C111.755 38.9716 112.38 38.7959 112.919 38.4465C113.458 38.097 113.881 37.6144 114.189 36.9987C114.497 36.3848 114.65 35.6748 114.65 34.8686C114.65 34.0624 114.493 33.3635 114.182 32.744C113.87 32.1246 113.442 31.6402 112.897 31.2888C112.353 30.9394 111.722 30.7637 111.003 30.7637C110.283 30.7637 109.664 30.9394 109.116 31.2888C108.567 31.6402 108.137 32.1246 107.824 32.744C107.513 33.3635 107.356 34.0716 107.356 34.8686C107.356 35.6655 107.513 36.3848 107.824 36.9987C108.136 37.6125 108.571 38.0951 109.128 38.4465C109.686 38.7978 110.325 38.9716 111.043 38.9716H111.047Z" fill="#1F41FF"/>
<path d="M117.164 39.9072V32.7089H118.227L118.298 34.0328V39.9072H117.164ZM122.142 36.2202C122.142 35.5101 122.062 34.9684 121.902 34.593C121.741 34.2195 121.519 33.9625 121.235 33.822C120.951 33.6833 120.63 33.613 120.269 33.613C119.645 33.613 119.16 33.8368 118.816 34.2824C118.47 34.728 118.298 35.3604 118.298 36.1758H117.745C117.745 35.4177 117.854 34.765 118.071 34.2177C118.288 33.6704 118.604 33.2525 119.022 32.9659C119.439 32.6793 119.94 32.5332 120.524 32.5332C121.109 32.5332 121.566 32.646 121.978 32.8716C122.39 33.0972 122.71 33.454 122.944 33.944C123.175 34.434 123.286 35.0775 123.277 35.8726V36.2183H122.142V36.2202ZM122.142 39.9072V36.222H123.277V39.9072H122.142Z" fill="#1F41FF"/>
<path d="M124.712 39.9072V29.8281H125.847V39.9072H124.712Z" fill="#1F41FF"/>
<path d="M127.984 31.0381C127.794 31.0381 127.629 30.9659 127.487 30.8217C127.344 30.6775 127.273 30.5092 127.273 30.3169C127.273 30.1246 127.344 29.9453 127.487 29.8066C127.629 29.6679 127.794 29.5977 127.984 29.5977C128.182 29.5977 128.35 29.6679 128.487 29.8066C128.623 29.9453 128.692 30.1154 128.692 30.3169C128.692 30.5185 128.623 30.6775 128.487 30.8217C128.35 30.9659 128.182 31.0381 127.984 31.0381ZM127.403 39.9079V32.7096H128.538V39.9079H127.403Z" fill="#1F41FF"/>
<path d="M130.125 39.9072V32.7089H131.188L131.259 34.0328V39.9072H130.125ZM135.103 36.2202C135.103 35.5101 135.023 34.9684 134.863 34.593C134.702 34.2195 134.48 33.9625 134.196 33.822C133.912 33.6833 133.591 33.613 133.23 33.613C132.606 33.613 132.121 33.8368 131.777 34.2824C131.431 34.728 131.259 35.3604 131.259 36.1758H130.706C130.706 35.4177 130.815 34.765 131.032 34.2177C131.248 33.6704 131.565 33.2525 131.983 32.9659C132.4 32.6793 132.901 32.5332 133.485 32.5332C134.07 32.5332 134.527 32.646 134.939 32.8716C135.351 33.0972 135.671 33.454 135.905 33.944C136.136 34.434 136.247 35.0775 136.238 35.8726V36.2183H135.103V36.2202ZM135.103 39.9072V36.222H136.238V39.9072H135.103Z" fill="#1F41FF"/>
<path d="M140.796 40.0792C140.105 40.0792 139.495 39.9184 138.965 39.5966C138.435 39.2749 138.022 38.8311 137.725 38.2653C137.426 37.6995 137.278 37.0468 137.278 36.3072C137.278 35.5676 137.428 34.9149 137.725 34.3491C138.022 33.7833 138.433 33.3395 138.958 33.0178C139.483 32.696 140.085 32.5352 140.767 32.5352C141.448 32.5352 142 32.7016 142.483 33.0325C142.965 33.3635 143.339 33.8276 143.603 34.4212C143.867 35.0166 144 35.7173 144 36.5235H138.142L138.426 36.2795C138.426 36.8545 138.528 37.35 138.73 37.7624C138.934 38.1747 139.22 38.4891 139.588 38.7054C139.956 38.9217 140.377 39.029 140.851 39.029C141.351 39.029 141.774 38.9088 142.12 38.6684C142.465 38.428 142.732 38.1118 142.922 37.718L143.9 38.2228C143.72 38.5963 143.481 38.9236 143.184 39.2028C142.887 39.482 142.536 39.6965 142.135 39.8499C141.732 40.0034 141.286 40.0811 140.794 40.0811L140.796 40.0792ZM138.497 35.7895L138.2 35.5583H143.095L142.796 35.8024C142.796 35.342 142.707 34.9426 142.526 34.6079C142.346 34.2714 142.106 34.0125 141.803 33.8313C141.501 33.6483 141.151 33.5577 140.754 33.5577C140.357 33.5577 140 33.6483 139.656 33.8313C139.309 34.0144 139.031 34.2714 138.819 34.6024C138.606 34.9334 138.501 35.3291 138.501 35.7895H138.497Z" fill="#1F41FF"/>
<path d="M36.0645 25.0107V4.80078H43.0905C44.4549 4.80078 45.659 5.07074 46.7028 5.60881C47.7448 6.14688 48.5608 6.89389 49.1492 7.84614C49.7376 8.7984 50.0309 9.90042 50.0309 11.1522C50.0309 12.404 49.723 13.5097 49.1073 14.4731C48.4916 15.4364 47.6427 16.1908 46.5607 16.74C45.4805 17.2892 44.2563 17.5628 42.8919 17.5628H39.3653V25.0126H36.0663L36.0645 25.0107ZM39.3653 14.4731H43.2344C43.8793 14.4731 44.4531 14.3289 44.9558 14.0404C45.4586 13.752 45.8667 13.3581 46.1782 12.857C46.4915 12.3559 46.6481 11.7883 46.6481 11.1541C46.6481 10.1926 46.3075 9.40303 45.6244 8.7873C44.9413 8.17157 44.0596 7.86279 42.9794 7.86279H39.3671V14.4749L39.3653 14.4731ZM47.1017 25.0107L42.4365 16.8103L44.9959 15.0204L50.827 25.0107H47.0999H47.1017Z" fill="#1F41FF"/>
<path d="M59.3049 25.3593C57.9204 25.3593 56.6926 25.0376 55.6215 24.3922C54.5504 23.7469 53.7052 22.8575 53.0895 21.7222C52.4737 20.5869 52.1641 19.2778 52.1641 17.7949C52.1641 16.3119 52.4774 15.0047 53.1022 13.8675C53.7288 12.7322 54.585 11.841 55.6762 11.1975C56.7673 10.5522 58.0133 10.2305 59.416 10.2305C60.6857 10.2305 61.8333 10.5633 62.857 11.2271C63.8808 11.8909 64.6914 12.8487 65.2889 14.1005C65.8864 15.3523 66.1852 16.8426 66.1852 18.5752H55.0058L55.4321 18.1702C55.4321 19.0559 55.6215 19.8214 56.0004 20.4649C56.3793 21.1102 56.8821 21.6057 57.5087 21.9515C58.1354 22.2973 58.8258 22.4711 59.5854 22.4711C60.458 22.4711 61.1793 22.2732 61.7477 21.8794C62.316 21.4856 62.7623 20.9697 63.0847 20.3355L65.901 21.5484C65.5021 22.3176 64.9956 22.9925 64.3799 23.5694C63.7642 24.1463 63.0337 24.5901 62.1903 24.897C61.3469 25.204 60.3833 25.3593 59.303 25.3593H59.3049ZM55.6343 16.495L55.1789 16.0901H63.1995L62.7733 16.495C62.7733 15.7055 62.602 15.0565 62.2614 14.5461C61.9207 14.0358 61.489 13.6512 60.968 13.3905C60.447 13.1298 59.9005 13.0003 59.3322 13.0003C58.7638 13.0003 58.1937 13.1298 57.6253 13.3905C57.057 13.6512 56.5815 14.0358 56.2026 14.5461C55.8237 15.0565 55.6343 15.7055 55.6343 16.495Z" fill="#1F41FF"/>
<path d="M68.0088 25.0117V10.5762H70.9963L71.1384 12.5103C71.5737 11.7596 72.133 11.192 72.8161 10.8074C73.4992 10.4228 74.2752 10.2305 75.1478 10.2305C76.2863 10.2305 77.2536 10.4912 78.0496 11.0108C78.8457 11.5303 79.425 12.3199 79.7856 13.3775C80.2028 12.3569 80.7912 11.5784 81.549 11.0385C82.3068 10.5004 83.1994 10.2305 84.2231 10.2305C85.8735 10.2305 87.1432 10.7648 88.034 11.8336C88.9248 12.9023 89.3601 14.5424 89.3419 16.7557V25.0135H86.185V17.6211C86.185 16.4654 86.0612 15.576 85.8152 14.9511C85.5693 14.3261 85.236 13.8879 84.8188 13.6382C84.4017 13.3886 83.9171 13.2629 83.3688 13.2629C82.3833 13.2444 81.62 13.5994 81.079 14.3316C80.538 15.0638 80.2684 16.1123 80.2684 17.4787V25.0154H77.0823V17.6229C77.0823 16.4673 76.9639 15.5779 76.7271 14.9529C76.4903 14.3279 76.1624 13.8897 75.7453 13.6401C75.3281 13.3905 74.8436 13.2647 74.2952 13.2647C73.3097 13.2462 72.5465 13.6013 72.0055 14.3335C71.4644 15.0657 71.1948 16.1141 71.1948 17.4805V25.0172H68.0088V25.0117Z" fill="#1F41FF"/>
<path d="M98.3026 25.3593C96.9181 25.3593 95.6903 25.0376 94.6192 24.3922C93.5481 23.7469 92.7028 22.8575 92.0871 21.7222C91.4714 20.5869 91.1636 19.2778 91.1636 17.7949C91.1636 16.3119 91.4769 15.0047 92.1017 13.8675C92.7284 12.7322 93.5845 11.841 94.6757 11.1975C95.7668 10.5522 97.0128 10.2305 98.4155 10.2305C99.6852 10.2305 100.833 10.5633 101.857 11.2271C102.88 11.8909 103.691 12.8487 104.288 14.1005C104.886 15.3523 105.185 16.8426 105.185 18.5752H94.0053L94.4316 18.1702C94.4316 19.0559 94.621 19.8214 94.9999 20.4649C95.3788 21.1102 95.8816 21.6057 96.5064 21.9515C97.1331 22.2973 97.8235 22.4711 98.5831 22.4711C99.4556 22.4711 100.177 22.2732 100.745 21.8794C101.314 21.4856 101.76 20.9697 102.082 20.3355L104.899 21.5484C104.5 22.3176 103.993 22.9925 103.378 23.5694C102.762 24.1463 102.031 24.5901 101.188 24.897C100.345 25.204 99.381 25.3593 98.3007 25.3593H98.3026ZM94.6338 16.495L94.1784 16.0901H102.201L101.775 16.495C101.775 15.7055 101.603 15.0565 101.263 14.5461C100.922 14.0358 100.49 13.6512 99.9693 13.3905C99.4483 13.1298 98.9019 13.0003 98.3335 13.0003C97.7652 13.0003 97.195 13.1298 96.6266 13.3905C96.0583 13.6512 95.5829 14.0358 95.204 14.5461C94.8251 15.0565 94.6356 15.7055 94.6356 16.495H94.6338Z" fill="#1F41FF"/>
<path d="M112.183 25.3575C111.234 25.3575 110.363 25.2133 109.565 24.9249C108.769 24.6364 108.086 24.2278 107.518 23.6971C106.95 23.1683 106.512 22.547 106.21 21.8351L108.97 20.5944C109.254 21.1343 109.677 21.5855 110.236 21.9516C110.795 22.3177 111.416 22.5008 112.099 22.5008C112.839 22.5008 113.431 22.3713 113.877 22.1106C114.324 21.8518 114.546 21.4894 114.546 21.0289C114.546 20.5685 114.375 20.245 114.034 20.0046C113.693 19.7642 113.209 19.5664 112.584 19.4129L111.247 19.0375C109.901 18.6918 108.848 18.1389 108.09 17.3771C107.332 16.6171 106.951 15.7462 106.951 14.7644C106.951 13.3203 107.41 12.2053 108.33 11.4158C109.25 10.6263 110.573 10.2324 112.298 10.2324C113.17 10.2324 113.972 10.3619 114.702 10.6226C115.433 10.8814 116.063 11.2475 116.593 11.719C117.123 12.1906 117.493 12.7434 117.703 13.3795L115.058 14.5924C114.868 14.1117 114.507 13.74 113.977 13.4812C113.445 13.2205 112.859 13.091 112.214 13.091C111.569 13.091 111.066 13.2316 110.706 13.5089C110.345 13.7881 110.165 14.1783 110.165 14.6775C110.165 14.966 110.325 15.2304 110.647 15.4707C110.97 15.7111 111.434 15.909 112.041 16.0624L113.719 16.4674C114.648 16.6985 115.406 17.0591 115.994 17.5509C116.582 18.0409 117.018 18.5901 117.302 19.1966C117.586 19.803 117.728 20.4132 117.728 21.0308C117.728 21.8961 117.486 22.6579 117.003 23.3125C116.52 23.9671 115.861 24.4718 115.027 24.8287C114.192 25.1837 113.243 25.3631 112.183 25.3631V25.3575Z" fill="#1F41FF"/>
<path d="M124.785 25.3575C123.836 25.3575 122.965 25.2133 122.167 24.9249C121.371 24.6364 120.688 24.2278 120.12 23.6971C119.552 23.1683 119.114 22.547 118.812 21.8351L121.572 20.5944C121.856 21.1343 122.279 21.5855 122.838 21.9516C123.397 22.3177 124.018 22.5008 124.701 22.5008C125.441 22.5008 126.033 22.3713 126.479 22.1106C126.926 21.8518 127.148 21.4894 127.148 21.0289C127.148 20.5685 126.977 20.245 126.636 20.0046C126.295 19.7642 125.811 19.5664 125.186 19.4129L123.849 19.0375C122.503 18.6918 121.45 18.1389 120.692 17.3771C119.934 16.6171 119.553 15.7462 119.553 14.7644C119.553 13.3203 120.012 12.2053 120.932 11.4158C121.852 10.6263 123.175 10.2324 124.9 10.2324C125.772 10.2324 126.574 10.3619 127.304 10.6226C128.035 10.8814 128.665 11.2475 129.195 11.719C129.725 12.1906 130.095 12.7434 130.305 13.3795L127.66 14.5924C127.47 14.1117 127.11 13.74 126.579 13.4812C126.048 13.2205 125.461 13.091 124.816 13.091C124.171 13.091 123.668 13.2316 123.308 13.5089C122.947 13.7881 122.767 14.1783 122.767 14.6775C122.767 14.966 122.927 15.2304 123.25 15.4707C123.572 15.7111 124.036 15.909 124.643 16.0624L126.321 16.4674C127.25 16.6985 128.008 17.0591 128.596 17.5509C129.184 18.0409 129.62 18.5901 129.904 19.1966C130.188 19.803 130.33 20.4132 130.33 21.0308C130.33 21.8961 130.088 22.6579 129.605 23.3125C129.122 23.9671 128.463 24.4718 127.629 24.8287C126.794 25.1837 125.845 25.3631 124.785 25.3631V25.3575Z" fill="#1F41FF"/>
<path d="M136.817 25.3592C135.11 25.3592 133.788 24.9746 132.85 24.2035C131.911 23.4343 131.441 22.3453 131.441 20.94C131.441 19.4386 131.939 18.294 132.935 17.5045C133.93 16.7149 135.32 16.3211 137.103 16.3211H140.914V18.8043H138.127C136.855 18.8043 135.965 18.9819 135.453 19.3387C134.941 19.6956 134.684 20.2004 134.684 20.8549C134.684 21.4133 134.906 21.8516 135.352 22.1677C135.799 22.4858 136.42 22.6448 137.216 22.6448C137.936 22.6448 138.562 22.4821 139.094 22.1548C139.624 21.8275 140.038 21.3948 140.331 20.8549C140.624 20.3169 140.772 19.7104 140.772 19.0355H141.71C141.71 20.9992 141.322 22.5431 140.544 23.6692C139.766 24.7952 138.524 25.3592 136.817 25.3592ZM140.912 25.0116L140.77 22.2972V17.5914C140.77 16.6095 140.67 15.7867 140.471 15.1229C140.273 14.4591 139.95 13.9488 139.504 13.5919C139.058 13.2369 138.466 13.0575 137.726 13.0575C137.043 13.0575 136.445 13.2018 135.934 13.4902C135.422 13.7787 134.984 14.2317 134.626 14.8474L131.839 13.8082C132.141 13.174 132.545 12.5805 133.048 12.0332C133.551 11.484 134.187 11.0476 134.954 10.7185C135.722 10.3912 136.646 10.2285 137.726 10.2285C139.11 10.2285 140.267 10.5022 141.196 11.0513C142.125 11.6005 142.814 12.3845 143.258 13.4052C143.703 14.4258 143.927 15.6573 143.927 17.1014L143.841 25.0134H140.912V25.0116Z" fill="#1F41FF"/>
<path d="M26.3718 7.35084V12.3303L14.38 5.30211C13.6404 4.86944 12.7296 4.86944 11.99 5.30211L0 12.3303V7.35084L11.9918 0.324506C12.7314 -0.108169 13.6422 -0.108169 14.38 0.324506L26.3718 7.35084Z" fill="#1F41FF"/>
<path d="M26.3718 16.6046V21.5823L14.38 14.5541C13.6404 14.1214 12.7296 14.1214 11.99 14.5541L0 21.5823V16.6046L11.9918 9.57646C12.7314 9.14378 13.6422 9.14378 14.3818 9.57646L26.3736 16.6046H26.3718Z" fill="#1F41FF"/>
<path d="M11.9917 29.8347L2.67041 24.3744L11.9917 18.9124C12.7313 18.4797 13.6421 18.4797 14.3817 18.9124L23.703 24.3744L14.3817 29.8347C13.6421 30.2673 12.7313 30.2673 11.9917 29.8347Z" fill="#1F41FF"/>
</svg>